<svg preserveAspectRatio="none" width="100%" height="100%" overflow="visible" style="display: block;" viewBox="0 0 26 26" fill="none" xmlns="http://www.w3.org/2000/svg">
<g id="icon/star" clip-path="url(#clip0_0_28)">
<path id="Vector" d="M12.3857 0.154953C14.0535 -0.0320851 15.0763 0.888355 15.7433 2.25579C16.0266 2.8367 16.3397 3.44115 16.6297 4.0234L17.4826 5.7684C17.6358 6.07956 17.8116 6.37672 17.9399 6.69736C19.2403 6.99057 20.5896 7.16718 21.897 7.48231C23.0653 7.7639 24.0871 7.7587 24.9712 8.705C25.8141 9.60722 25.868 10.8276 25.2926 11.8782C24.8196 12.6172 24.1151 13.2615 23.463 13.8636C22.6707 14.5951 21.8611 15.3807 21.0475 16.0871C21.0929 16.5994 21.1896 17.1826 21.2622 17.6963C21.4102 18.7166 21.5507 19.7379 21.6836 20.7601C21.7612 21.3844 21.8572 22.1115 21.844 22.7363C21.7972 23.9312 21.197 25.0939 19.9358 25.4312C18.5887 25.7917 17.3979 24.9277 16.3264 24.2735L14.2055 22.9889C13.8662 22.7819 13.5646 22.5755 13.2158 22.3751C13.0997 22.3044 13.0412 22.2618 12.9356 22.1765C11.4601 23.0544 10.0262 24.0043 8.53709 24.8787C7.75128 25.3874 6.79314 25.6897 5.85262 25.4396C4.667 25.1331 3.91503 23.9161 3.92885 22.7591C3.94865 21.1023 4.2317 19.3848 4.48041 17.7452C4.55061 17.2823 4.59319 16.589 4.71029 16.1653C4.01837 15.5707 3.32137 14.9279 2.65924 14.3019C2.09877 13.772 1.21526 12.9871 0.758608 12.3876C0.546974 12.1147 0.383898 11.8095 0.276132 11.4845C-0.134173 10.2688 0.2828 8.98341 1.46583 8.35272C2.39587 7.85692 3.46382 7.76043 4.47563 7.49302C4.97428 7.36124 5.48275 7.24594 5.98363 7.1223C6.49485 6.99375 7.04661 6.91203 7.5463 6.75598C7.61264 6.65181 7.68186 6.51762 7.73388 6.40584C8.26041 5.25864 8.85455 4.12905 9.41627 3.00016C10.1538 1.51774 10.5873 0.507615 12.3857 0.154953Z" fill="var(--fill-0, #FAB602)"/>
<path id="Vector_2" d="M12.081 1.01665C12.7552 0.779985 13.6181 0.970391 14.1382 1.44153C14.6928 1.87241 15.2642 3.15121 15.5817 3.8035L16.7589 6.19925C16.9111 6.50681 17.1967 7.11838 17.391 7.37378C18.0386 7.54223 18.911 7.62723 19.5768 7.79726C19.8238 7.86036 20.0808 7.88316 20.3217 7.98241C20.8649 8.09729 21.4163 8.18669 21.9576 8.3133C22.0956 8.34555 22.4806 8.42161 22.5956 8.46807C22.8685 8.41629 23.443 8.60902 23.688 8.72912L23.8513 8.79957C24.6176 9.28561 25.1042 10.0929 24.7698 10.9837C24.7315 11.095 24.6106 11.4554 24.5557 11.5353C24.1896 12.0681 23.6907 12.4914 23.2394 12.9331C22.2657 13.8857 21.1432 14.8207 20.2098 15.7997C20.1957 16.2008 20.3372 17.0572 20.4008 17.4824C20.5601 18.5277 20.7065 19.5748 20.84 20.6235C21.0263 22.0882 21.5153 24.6374 19.1989 24.6862C18.9686 24.6911 18.5451 24.5892 18.3467 24.4837C16.4976 23.5005 14.6931 22.3114 12.8909 21.2533C12.3018 21.5574 11.7663 21.9223 11.2074 22.2731L9.15314 23.542C8.58538 23.8928 7.71253 24.4617 7.08201 24.6392C6.70879 24.7433 6.31229 24.7396 5.94123 24.6283C5.85191 24.602 5.7426 24.5519 5.65777 24.5106C5.31601 24.3035 4.81617 23.7543 4.80657 23.3482C4.43034 22.2899 5.05449 19.106 5.21054 17.902C5.27521 17.403 5.40209 16.3056 5.48582 15.8202C4.13375 14.5594 2.70626 13.3327 1.44031 11.9867C1.28298 11.8195 1.06723 11.492 1.00549 11.2731C0.827506 10.8498 0.78828 10.6292 0.901004 10.1823C1.24986 8.78969 2.77273 8.6817 3.96145 8.38554C5.20881 8.07637 6.45562 7.77956 7.71657 7.5253C8.0808 7.45185 8.14366 7.32503 8.29324 7.0198C8.91516 5.72684 9.55894 4.44895 10.214 3.17177C10.6369 2.34724 11.0352 1.27558 12.081 1.01665Z" fill="var(--fill-0, #FED63A)"/>
<path id="Vector_3" d="M23.8513 8.79958C24.6176 9.28563 25.1042 10.0929 24.7698 10.9837C24.7315 11.095 24.6106 11.4554 24.5557 11.5353C24.1896 12.0681 23.6907 12.4915 23.2394 12.9331C22.2657 13.8858 21.1432 14.8207 20.2098 15.7997C20.1957 16.2008 20.3372 17.0572 20.4008 17.4824C20.5601 18.5277 20.7065 19.5748 20.84 20.6235C21.0263 22.0883 21.5153 24.6374 19.1989 24.6862C18.9686 24.6911 18.5451 24.5892 18.3467 24.4837C16.4976 23.5005 14.6931 22.3115 12.8909 21.2534C12.3018 21.5574 11.7663 21.9223 11.2075 22.2731L9.15315 23.542C8.58539 23.8929 7.71254 24.4617 7.08201 24.6392C6.70879 24.7433 6.31229 24.7396 5.94123 24.6283C5.85191 24.6021 5.7426 24.5519 5.65777 24.5106C5.31602 24.3035 4.81618 23.7543 4.80658 23.3482C4.86802 23.2027 4.73523 22.5113 4.88773 22.291C4.92675 22.2347 4.9541 22.2312 5.01773 22.2202C5.08895 22.2631 5.1035 22.2668 5.1849 22.2751L5.20521 22.277C5.27465 22.5131 5.34072 22.6336 5.47976 22.8395C5.62939 22.9178 5.67725 22.936 5.83777 22.985C6.02919 23.0789 6.25666 22.9734 6.41167 22.8573C6.94399 22.4583 7.43227 21.9832 7.928 21.5414C8.82266 20.737 9.7352 19.9515 10.665 19.1855C12.5961 17.6085 12.8395 17.7202 14.8601 19.1062C15.7137 19.7027 16.5627 20.3052 17.4072 20.9137C17.6596 21.0946 18.5595 21.8337 18.8575 21.6921C19.0423 21.3761 18.5174 20.0239 18.4172 19.6426C18.2588 19.0393 18.0171 18.384 17.8817 17.7748C17.6281 16.6346 16.8133 14.9727 17.6707 13.9253C17.9197 13.6247 18.347 13.3823 18.6605 13.1579C20.1904 12.0626 21.777 11.0418 23.2987 9.93824C23.4613 9.82026 23.5593 9.54506 23.5621 9.34888C23.5417 9.21908 23.7249 8.87679 23.8513 8.79958Z" fill="var(--fill-0, #FDC306)"/>
<path id="Vector_4" d="M24.1936 10.6475C24.4832 10.7625 24.6243 10.9736 24.7698 10.9837C24.7315 11.0951 24.6106 11.4554 24.5557 11.5353C24.1896 12.0681 23.6907 12.4915 23.2393 12.9331C22.2657 13.8858 21.1432 14.8207 20.2098 15.7997C20.1957 16.2008 20.3372 17.0572 20.4007 17.4824C20.5601 18.5277 20.7065 19.5748 20.84 20.6236C21.0262 22.0883 21.5153 24.6375 19.1989 24.6862C18.9686 24.6911 18.5451 24.5892 18.3467 24.4837C16.4976 23.5005 14.6931 22.3115 12.8909 21.2534C12.3018 21.5574 11.7663 21.9223 11.2074 22.2731L9.15313 23.542C8.58537 23.8929 7.71252 24.4617 7.08199 24.6392C6.70877 24.7433 6.31227 24.7396 5.94122 24.6284C5.85189 24.6021 5.74258 24.5519 5.65775 24.5106C5.70691 24.4641 5.80896 24.3882 5.86581 24.3432L5.7451 23.7953C6.35485 24.0456 6.73531 24.0414 7.33344 23.734C7.97374 23.4049 8.5742 23.0111 9.18185 22.6306L11.2869 21.3285C13.0719 20.2151 12.8463 20.304 14.626 21.3842L16.6939 22.6484C17.2709 23.0067 17.8412 23.3616 18.4448 23.6783C18.8969 23.9155 19.5091 24.0526 19.9257 23.6727C20.3366 23.2981 20.3328 22.7113 20.3039 22.2089C20.2719 21.5265 20.1513 20.8586 20.0574 20.1839C19.9369 19.2788 19.8088 18.3747 19.6731 17.4717C19.3678 15.3806 19.2883 15.5693 20.8922 14.1163C21.6168 13.4604 22.33 12.7928 23.0313 12.1135C23.6625 11.4905 23.7818 11.434 24.1936 10.6475Z" fill="var(--fill-0, #FED63A)"/>
<path id="Vector_5" d="M1.03865 10.6864C1.14193 10.6089 1.24616 10.5327 1.35133 10.4577C1.56689 10.8175 1.88133 10.99 2.1966 11.2598C3.34107 12.239 4.52747 13.1723 5.67196 14.152C6.01206 14.4431 6.35011 14.6953 6.59079 15.0756C6.55542 15.1769 6.50779 15.2828 6.51881 15.3875L6.42687 15.4531C6.09499 15.3918 5.79398 15.7333 5.48582 15.8203C4.13374 14.5594 2.70625 13.3327 1.4403 11.9868C1.28298 11.8195 1.06723 11.4921 1.00548 11.2731C1.11226 11.1127 0.863654 10.9145 1.03865 10.6864Z" fill="var(--fill-0, #FDC306)"/>
<path id="Vector_6" d="M6.51881 15.3875C6.80987 15.4635 6.48179 16.7597 6.45821 17.0024C6.44076 17.1816 6.38287 17.4158 6.3523 17.5989C6.13669 18.8903 5.88153 20.1818 5.73833 21.4826C5.7057 21.7788 5.68613 22.0306 5.71248 22.3289C5.7247 22.4673 5.84431 22.8977 5.83776 22.9851C5.67724 22.936 5.62938 22.9178 5.47975 22.8395C5.34071 22.6336 5.27465 22.5131 5.2052 22.277L5.18489 22.2751C5.10349 22.2669 5.08894 22.2632 5.01772 22.2202C4.95409 22.2313 4.92675 22.2347 4.88772 22.2911C4.73522 22.5113 4.86802 23.2028 4.80657 23.3483C4.43033 22.29 5.05449 19.1061 5.21054 17.902C5.27521 17.4031 5.40208 16.3056 5.48582 15.8203C5.79399 15.7333 6.09499 15.3918 6.42687 15.4531L6.51881 15.3875Z" fill="var(--fill-0, #FEFEFE)"/>
<path id="Vector_7" d="M5.48582 15.8203C5.79399 15.7333 6.09499 15.3918 6.42687 15.4531C6.24825 15.6271 5.9847 15.9192 5.91307 16.155C5.75702 16.6687 5.67559 17.317 5.58921 17.849C5.48097 18.497 5.37921 19.146 5.28394 19.796C5.16128 20.6323 5.02874 21.4363 5.2052 22.277L5.18489 22.2751C5.10349 22.2669 5.08894 22.2632 5.01772 22.2202C4.95409 22.2313 4.92675 22.2347 4.88772 22.2911C4.73522 22.5113 4.86802 23.2028 4.80657 23.3483C4.43033 22.29 5.05449 19.1061 5.21054 17.902C5.27521 17.4031 5.40208 16.3056 5.48582 15.8203Z" fill="var(--fill-0, #FED63A)"/>
<path id="Vector_8" d="M16.7832 8.04461C16.5886 8.08299 16.3748 8.1262 16.2666 7.9169C15.6554 6.73363 15.2255 5.41556 14.7382 4.17962C14.4087 3.34417 14.1672 2.50754 13.7612 1.70574C13.7207 1.62583 13.4494 1.36878 13.3672 1.27566L13.3748 1.2521C13.5896 1.21531 13.9021 1.47078 14.1382 1.44159C14.6927 1.87246 15.2641 3.15127 15.5816 3.80356L16.7588 6.1993C16.9111 6.50687 17.1966 7.11843 17.3909 7.37383C17.3322 7.42979 17.3284 7.43915 17.3044 7.51582C17.2075 7.6192 16.8743 7.98847 16.7832 8.04461Z" fill="var(--fill-0, #FDC306)"/>
<path id="Vector_9" d="M17.391 7.37381C18.0386 7.54227 18.9111 7.62726 19.5768 7.7973C19.8238 7.8604 20.0808 7.8832 20.3217 7.98245C20.865 8.09733 21.4163 8.18673 21.9576 8.31333C22.0956 8.34559 22.4806 8.42164 22.5956 8.4681C22.8121 8.63407 23.0433 8.72717 23.2619 8.90173C23.398 9.05158 23.4895 9.15614 23.547 9.3557L23.5221 9.42444C23.4661 9.42301 23.2481 9.30281 23.1559 9.27723C22.6373 9.13317 22.0944 9.06531 21.5646 8.96909C20.4581 8.77661 19.3496 8.59402 18.2396 8.4213C17.8152 8.35187 17.3075 8.27975 16.8875 8.1744C16.827 8.15921 16.8078 8.09613 16.7832 8.04459C16.8743 7.98846 17.2075 7.61919 17.3044 7.5158C17.3285 7.43913 17.3322 7.42978 17.391 7.37381Z" fill="var(--fill-0, #FEE67F)"/>
<path id="Vector_10" d="M17.391 7.37381C18.0386 7.54227 18.911 7.62726 19.5768 7.7973C19.8238 7.8604 20.0808 7.8832 20.3217 7.98245C19.6525 7.95207 17.9283 7.68448 17.3044 7.5158C17.3285 7.43913 17.3322 7.42978 17.391 7.37381Z" fill="var(--fill-0, #FED63A)"/>
<path id="Vector_11" d="M12.1165 1.19129C12.5042 1.05893 12.6453 1.01847 13.0399 1.20216C13.1069 1.2334 13.1731 1.26618 13.2384 1.30047C13.0736 1.92107 13.4268 1.7602 13.7581 2.20538C13.065 1.77156 12.5295 1.61116 11.9284 2.32379C11.5225 2.80509 11.3212 3.36126 11.0495 3.91435C10.6304 4.75784 10.2732 5.6286 9.8599 6.47508C9.64421 6.91671 9.40409 7.59884 9.1062 7.97719C8.98722 7.77141 8.78476 7.55472 8.62503 7.37107C9.20807 6.1992 9.71959 4.9864 10.3049 3.81594C10.8006 2.82459 11.0733 1.76401 12.1165 1.19129Z" fill="var(--fill-0, #FEFEFE)"/>
<path id="Vector_12" d="M5.62286 8.34696C4.92112 8.49611 1.64457 9.11482 1.41106 9.69172L2.01036 10.8303C1.96816 10.1352 2.23364 9.96925 2.88697 9.77671C4.244 9.37679 5.65201 9.13006 7.02668 8.78997C7.60955 8.64576 8.33659 8.59243 8.83666 8.26854C8.64612 8.07979 8.51577 7.88354 8.34065 7.70346C7.91693 7.90026 7.37139 7.96077 6.91169 8.05985C6.48137 8.15257 6.05359 8.25542 5.62286 8.34696Z" fill="var(--fill-0, #FEFEFE)"/>
</g>
<defs>
<clipPath id="clip0_0_28">
<rect width="26" height="26" fill="white"/>
</clipPath>
</defs>
</svg>
