<svg preserveAspectRatio="none" width="100%" height="100%" overflow="visible" style="display: block;" viewBox="0 0 42.2001 49.7713" fill="none" xmlns="http://www.w3.org/2000/svg">
<path id="Vector" d="M16.9375 8.54222C17.078 8.11896 17.2745 7.48168 17.447 7.08942C18.4868 4.72456 20.4764 2.87579 22.825 1.71545C24.3608 0.956704 27.6276 0.00386704 29.3666 0.512552C30.1751 0.749024 30.8967 1.34742 31.2764 2.10204C32.2916 4.11939 32.4331 6.82828 31.7504 8.9623C31.4386 9.93682 30.8133 10.986 30.151 11.7785C29.8889 12.0921 29.5365 12.385 29.2786 12.6765C29.6902 12.5861 29.948 12.4302 30.3407 12.2996C34.5654 10.8948 40.5836 12.11 41.765 16.8986C42.2112 18.7072 39.8846 19.204 38.6049 19.652C37.4322 20.0626 36.2489 20.6941 35.0509 21.0714C34.8729 21.1274 34.7127 21.2211 34.5464 21.3104C36.7272 22.3293 37.2918 24.7277 36.7541 26.8734C36.7467 26.9983 36.3219 27.7525 36.3789 27.82C39.571 31.5951 39.9796 37.1309 36.8879 41.0953C36.4916 41.6036 36.0394 42.0402 35.5825 42.4962C35.4325 43.9207 34.9155 45.0615 33.7037 45.9572C29.3997 49.1397 23.2564 49.6496 18.026 49.2954C14.6128 49.064 7.3874 47.4685 7.11203 43.3426C2.43943 40.3639 1.23261 33.9881 4.31226 29.4498C4.6115 29.0089 4.94086 28.6201 5.29169 28.2175C4.93501 27.6629 4.76885 27.2229 4.76361 26.5651C3.49593 26.5455 1.95886 26.5671 0.970378 25.634C0.660711 25.3417 0.560229 24.872 0.379043 24.6475V22.5769L0.394224 22.5464C0.636142 22.0531 0.751008 21.3966 0.993583 20.8532C2.51769 17.4391 6.39449 15.6276 10.0906 15.7234C10.2106 15.7265 10.3282 15.7367 10.4495 15.7338C7.22875 14.3099 4.68664 12.5372 3.31229 9.25221C2.46336 7.22305 3.60139 6.04724 5.52045 5.39833C8.12025 4.51921 11.0873 4.8524 13.5461 5.98975C14.6771 6.51413 16.2648 7.53795 16.9375 8.54222ZM23.3238 18.2284C23.4511 18.2195 23.7189 18.2255 23.7578 18.1409C23.9046 17.822 24.8592 16.4741 24.9157 16.2657L24.8904 16.2215C24.3955 16.6623 23.5738 17.5588 23.2517 18.1428L23.2763 18.2121L23.3238 18.2284Z" stroke="var(--stroke-0, #FFC020)" stroke-width="0.758085" stroke-linecap="round" stroke-dasharray="1.52 1.52"/>
</svg>
