<svg preserveAspectRatio="none" width="100%" height="100%" overflow="visible" style="display: block;" viewBox="0 0 127.444 88.3348" fill="none" xmlns="http://www.w3.org/2000/svg">
<g id="Frame 74">
<path id="Vector" d="M68.0369 1.06864C69.7677 0.749237 71.7828 1.57783 72.9427 2.86182C75.4417 5.62789 76.6946 9.36508 77.8211 12.8487C78.0972 13.7049 78.2959 14.5945 78.607 15.4357C79.1989 15.655 80.3975 15.8435 81.0639 15.9721C85.0787 16.7475 91.5908 17.8285 92.6241 22.6257C93.4752 26.5811 90.891 29.7096 88.2385 32.259C87.2021 33.2556 85.23 34.6955 84.4565 35.8501C84.5023 37.2013 84.6373 38.5395 84.7079 39.8882C84.8002 41.8629 84.8467 43.8395 84.8475 45.8164C84.8506 47.151 84.8878 48.7725 84.6 50.0599C84.4014 50.9408 84.0127 51.7676 83.4611 52.4823C79.8824 57.0976 72.723 53.0155 69.015 50.6051C68.1873 50.067 67.309 49.5325 66.5342 48.9231C66.4466 48.8509 66.0533 48.5318 65.9679 48.5789C61.8796 50.8329 57.0258 53.9792 52.1502 53.2563C49.7504 52.9005 47.8636 50.305 47.8405 47.9498C47.7929 43.0902 49.3954 38.2627 50.337 33.5129C48.4474 31.966 44.2741 26.7489 43.5006 24.5364C39.701 13.6668 52.1984 13.9614 57.7325 13.0297C58.9617 10.3234 61.103 6.86204 62.8462 4.43797C64.0202 2.80541 65.9881 1.34133 68.0369 1.06864Z" stroke="var(--stroke-0, #FFC020)" stroke-width="2" stroke-linecap="round" stroke-dasharray="4 4"/>
<path id="Vector_2" d="M18.1431 11.6923C18.3834 11.7032 18.8802 11.876 19.1254 11.9526C22.2515 12.9291 23.1525 16.8992 25.067 18.9434C27.2947 18.7778 30.6248 17.8233 32.5478 18.9587C36.488 21.285 33.9441 26.2164 31.9802 28.9432C31.7112 29.3169 30.6686 30.7456 30.7072 31.0941C31.0294 33.9988 33.0185 36.7566 32.7172 39.7766C32.2936 44.6184 26.0801 43.8168 22.813 42.87C19.9102 42.0288 21.0435 41.7124 18.4072 43.7739C16.587 45.1062 14.0996 46.8429 11.7576 46.8169C5.92796 46.7521 7.83674 39.5798 7.86661 35.9218C5.66853 34.8682 2.22157 32.8307 1.35631 30.4525C-0.358783 25.7388 4.50006 24.1252 7.8047 22.8588C8.79695 22.4723 9.78672 22.0792 10.7739 21.6799C11.1004 21.0514 11.3296 20.2376 11.6099 19.5441C12.645 16.9831 13.5709 13.7132 16.1494 12.2738C16.7237 11.9532 17.5084 11.8193 18.1431 11.6923Z" stroke="var(--stroke-0, #FFC020)" stroke-width="2" stroke-linecap="round" stroke-dasharray="4 4"/>
<path id="Vector_3" d="M112.215 34.5898C112.745 34.4921 113.868 34.7662 114.329 35.0435C117.241 36.7957 117.204 41.3675 118.011 44.2427L118.033 44.3211C120.961 45.3873 125.988 46.4817 126.412 50.1631C126.784 53.3971 123.842 55.3891 121.37 56.7272C120.714 57.0824 120.14 57.5079 119.425 57.7647C119.295 60.2489 119.347 64.7091 117.639 66.5942C114.403 70.1654 110.085 66.3826 107.426 64.0791L106.423 63.2154C104.104 64.0474 99.1168 65.3552 96.8655 64.3497C91.6637 62.0264 96.469 55.1584 97.6948 52.0921C96.061 49.7301 93.7747 46.8387 94.2766 43.8096C95.0384 39.2055 101.4 40.5029 104.623 40.975C105.491 40.4603 105.575 39.7826 106.259 39.0072C107.955 37.0815 109.496 34.8823 112.215 34.5898Z" stroke="var(--stroke-0, #FFC020)" stroke-width="2" stroke-linecap="round" stroke-dasharray="4 4"/>
<path id="Vector_4" d="M22.7356 54.5082L22.8117 54.5027C26.016 54.2865 27.348 56.9877 29.4349 58.7683L29.5019 58.8249C32.055 58.3298 36.5527 57.1602 37.592 60.6847C38.2863 63.0389 36.7472 65.3713 35.6915 67.3696C36.2916 69.6774 39.8894 74.1343 36.5902 76.2662C34.5336 77.5952 31.538 77.2779 29.2458 76.7806C28.9374 77.2833 28.5039 77.6999 28.0958 78.1281C28.0484 78.1925 27.9982 78.2554 27.9455 78.3159C26.7435 79.6766 24.6097 81.4354 22.6768 81.4075C19.1328 81.357 18.8003 77.8551 18.8232 75.1059C18.805 74.8062 18.8965 73.3338 18.6568 73.1933C16.5454 71.9556 13.1362 70.9801 12.9611 67.9696C12.785 64.9439 16.5618 63.6066 18.4865 62.0889C18.5024 62.0708 18.5184 62.0528 18.5344 62.0348C18.8139 60.2949 18.9605 58.1807 19.7737 56.6311C20.5051 55.2369 21.3487 54.9225 22.7356 54.5082Z" stroke="var(--stroke-0, #FFC020)" stroke-width="2" stroke-linecap="round" stroke-dasharray="4 4"/>
<path id="Vector_5" d="M75.8172 63.8282C76.2974 63.7645 76.8187 63.927 77.2392 64.1427C79.254 65.1751 79.8118 68.1882 80.4759 70.1693C81.9825 70.3465 84.4976 71.5843 85.2385 73.0089C86.4821 75.3991 84.3308 78.2499 82.1919 79.357C82.2253 81.755 83.1795 86.7713 79.6489 87.2904C77.4976 87.6069 75.7008 86.1709 74.0973 84.9327L73.5338 84.3493C71.4661 85.371 67.0794 86.8055 65.6417 83.9986C64.5825 81.9303 66.1162 79.025 66.8309 77.0172C65.1298 74.9276 63.1924 71.2616 65.9938 69.1542C67.1055 68.3179 69.4765 68.2316 70.818 68.4867C70.8254 68.4794 70.8329 68.472 70.8402 68.4647C72.5524 66.4059 72.7516 64.4163 75.8172 63.8282Z" stroke="var(--stroke-0, #FFC020)" stroke-width="2" stroke-linecap="round" stroke-dasharray="4 4"/>
</g>
</svg>
