<svg preserveAspectRatio="none" width="100%" height="100%" overflow="visible" style="display: block;" viewBox="0 0 30 30" fill="none" xmlns="http://www.w3.org/2000/svg">
<g id="icon/star" clip-path="url(#clip0_0_129)">
<path id="Vector" d="M14.2912 0.178792C16.2156 -0.0370212 17.3958 1.02502 18.1653 2.60283C18.4922 3.27312 18.8535 3.97056 19.1881 4.64238L20.1722 6.65585C20.349 7.01488 20.5518 7.35775 20.6999 7.72772C22.2003 8.06604 23.7572 8.26982 25.2657 8.63343C26.6138 8.95835 27.7928 8.95235 28.8129 10.0442C29.7855 11.0852 29.8477 12.4934 29.1838 13.7056C28.638 14.5583 27.8251 15.3018 27.0727 15.9964C26.1584 16.8405 25.2243 17.747 24.2856 18.562C24.338 19.1531 24.4496 19.8261 24.5333 20.4188C24.7041 21.5961 24.8662 22.7745 25.0195 23.954C25.1091 24.6743 25.2198 25.5133 25.2046 26.2342C25.1507 27.6129 24.4581 28.9545 23.0029 29.3437C21.4485 29.7596 20.0745 28.7627 18.8382 28.0079L16.391 26.5257C15.9994 26.2868 15.6514 26.0486 15.249 25.8175C15.115 25.7359 15.0475 25.6866 14.9256 25.5883C13.2231 26.6012 11.5686 27.6973 9.85049 28.7062C8.94378 29.2931 7.83823 29.642 6.75302 29.3534C5.385 28.9997 4.51735 27.5955 4.53328 26.2604C4.55613 24.3488 4.88274 22.3671 5.1697 20.4753C5.25071 19.9412 5.29984 19.1411 5.43495 18.6522C4.63658 17.9662 3.83236 17.2245 3.06835 16.5022C2.42166 15.8908 1.40222 14.9851 0.875316 14.2934C0.631124 13.9785 0.442959 13.6263 0.318614 13.2513C-0.154815 11.8486 0.326308 10.3655 1.69135 9.63775C2.76446 9.06567 3.99671 8.95434 5.16419 8.64579C5.73955 8.49374 6.32625 8.3607 6.90419 8.21803C7.49405 8.06971 8.13071 7.97542 8.70727 7.79536C8.78382 7.67516 8.86368 7.52033 8.92371 7.39136C9.53124 6.06766 10.2168 4.76428 10.8649 3.46173C11.716 1.75124 12.2161 0.585709 14.2912 0.178792Z" fill="var(--fill-0, #FAB602)"/>
<path id="Vector_2" d="M13.9397 1.17305C14.7175 0.899983 15.7132 1.11968 16.3133 1.66331C16.9532 2.16047 17.6125 3.63602 17.9788 4.38866L19.3371 7.15298C19.5128 7.50786 19.8423 8.21352 20.0665 8.5082C20.8138 8.70258 21.8204 8.80065 22.5886 8.99684C22.8737 9.06965 23.1701 9.09596 23.4481 9.21048C24.0749 9.34303 24.7111 9.44619 25.3357 9.59227C25.4949 9.62948 25.9391 9.71724 26.0718 9.77085C26.3867 9.7111 27.0496 9.93349 27.3323 10.0721L27.5207 10.1533C28.4049 10.7142 28.9664 11.6457 28.5805 12.6735C28.5363 12.802 28.3968 13.2177 28.3335 13.3099C27.911 13.9247 27.3355 14.4132 26.8146 14.9228C25.6912 16.022 24.396 17.1008 23.319 18.2304C23.3027 18.6932 23.466 19.6814 23.5393 20.172C23.7232 21.3781 23.8921 22.5863 24.0461 23.7964C24.2611 25.4864 24.8254 28.4278 22.1526 28.4841C21.8868 28.4897 21.3982 28.3721 21.1693 28.2504C19.0357 27.116 16.9536 25.744 14.8741 24.5231C14.1944 24.8739 13.5765 25.2949 12.9317 25.6997L10.5613 27.1638C9.90621 27.5687 8.89907 28.225 8.17155 28.4298C7.74091 28.55 7.28341 28.5457 6.85527 28.4173C6.7522 28.387 6.62608 28.3291 6.5282 28.2814C6.13386 28.0425 5.55712 27.4088 5.54605 26.9402C5.11193 25.7191 5.8321 22.0454 6.01216 20.6561C6.08678 20.0804 6.23318 18.8141 6.3298 18.2541C4.76971 16.7993 3.12261 15.3838 1.66189 13.8308C1.48036 13.6378 1.23142 13.26 1.16018 13.0074C0.954814 12.519 0.909553 12.2645 1.03962 11.7488C1.44215 10.142 3.19931 10.0174 4.5709 9.67562C6.01017 9.31889 7.44879 8.97641 8.90373 8.68303C9.324 8.59829 9.39654 8.45195 9.56912 8.09977C10.2867 6.60789 11.0295 5.1334 11.7854 3.65974C12.2733 2.70835 12.7329 1.47183 13.9397 1.17305Z" fill="var(--fill-0, #FED63A)"/>
<path id="Vector_3" d="M27.5207 10.1534C28.4049 10.7142 28.9664 11.6457 28.5805 12.6735C28.5363 12.802 28.3968 13.2178 28.3335 13.31C27.9111 13.9248 27.3355 14.4132 26.8146 14.9228C25.6912 16.022 24.396 17.1008 23.319 18.2304C23.3027 18.6932 23.466 19.6814 23.5393 20.172C23.7232 21.3781 23.8921 22.5863 24.0462 23.7964C24.2611 25.4865 24.8254 28.4278 22.1526 28.4841C21.8869 28.4898 21.3982 28.3721 21.1693 28.2504C19.0357 27.116 16.9536 25.744 14.8741 24.5231C14.1944 24.8739 13.5765 25.295 12.9317 25.6998L10.5613 27.1638C9.90622 27.5687 8.89908 28.225 8.17155 28.4298C7.74092 28.55 7.28342 28.5457 6.85527 28.4173C6.7522 28.387 6.62608 28.3291 6.5282 28.2815C6.13386 28.0425 5.55713 27.4088 5.54605 26.9403C5.61695 26.7724 5.46373 25.9746 5.63969 25.7204C5.68471 25.6554 5.71627 25.6514 5.78969 25.6387C5.87186 25.6882 5.88865 25.6925 5.98258 25.702L6.00601 25.7042C6.08614 25.9767 6.16237 26.1156 6.3228 26.3532C6.49545 26.4436 6.55067 26.4646 6.73589 26.5212C6.95676 26.6295 7.21923 26.5078 7.39808 26.3738C8.01229 25.9135 8.5757 25.3652 9.14769 24.8554C10.18 23.9273 11.2329 23.021 12.3058 22.1371C14.534 20.3175 14.8148 20.4463 17.1463 22.0456C18.1311 22.7339 19.1108 23.4291 20.0852 24.1312C20.3765 24.34 21.4148 25.1928 21.7587 25.0294C21.9718 24.6647 21.3662 23.1045 21.2507 22.6646C21.0679 21.9685 20.789 21.2123 20.6327 20.5094C20.3402 19.1938 19.4 17.2762 20.3893 16.0677C20.6766 15.7208 21.1696 15.4411 21.5313 15.1821C23.2966 13.9184 25.1273 12.7406 26.8831 11.4672C27.0707 11.3311 27.1838 11.0135 27.1871 10.7872C27.1635 10.6374 27.3748 10.2425 27.5207 10.1534Z" fill="var(--fill-0, #FDC306)"/>
<path id="Vector_4" d="M27.9157 12.2855C28.2498 12.4183 28.4127 12.6618 28.5805 12.6736C28.5363 12.802 28.3968 13.2178 28.3335 13.31C27.911 13.9248 27.3354 14.4132 26.8146 14.9228C25.6912 16.0221 24.396 17.1008 23.319 18.2304C23.3027 18.6932 23.466 19.6814 23.5393 20.172C23.7232 21.3781 23.8921 22.5863 24.0461 23.7964C24.2611 25.4865 24.8253 28.4278 22.1526 28.4841C21.8868 28.4898 21.3982 28.3722 21.1693 28.2504C19.0357 27.116 16.9536 25.744 14.8741 24.5231C14.1944 24.874 13.5765 25.295 12.9317 25.6998L10.5613 27.1638C9.9062 27.5687 8.89906 28.225 8.17153 28.4298C7.74089 28.55 7.28339 28.5457 6.85525 28.4173C6.75218 28.387 6.62606 28.3292 6.52818 28.2815C6.5849 28.2278 6.70264 28.1402 6.76824 28.0883L6.62896 27.4561C7.33252 27.7449 7.77151 27.74 8.46166 27.3853C9.20046 27.0057 9.89331 26.5513 10.5944 26.1122L13.0233 24.6098C15.083 23.3251 14.8227 23.4277 16.8761 24.6741L19.2622 26.1328C19.928 26.5462 20.586 26.9557 21.2824 27.3211C21.8041 27.5948 22.5104 27.753 22.9912 27.3147C23.4653 26.8824 23.461 26.2053 23.4276 25.6257C23.3906 24.8383 23.2514 24.0676 23.1432 23.2891C23.0041 22.2448 22.8563 21.2016 22.6998 20.1596C22.3474 17.7468 22.2557 17.9645 24.1064 16.288C24.9425 15.5313 25.7653 14.7609 26.5746 13.9772C27.3028 13.2582 27.4405 13.1931 27.9157 12.2855Z" fill="var(--fill-0, #FED63A)"/>
<path id="Vector_5" d="M1.19845 12.3305C1.31761 12.2411 1.43788 12.1531 1.55922 12.0666C1.80794 12.4817 2.17076 12.6808 2.53454 12.9921C3.85508 14.1219 5.22401 15.1988 6.54456 16.3292C6.937 16.6651 7.32705 16.9561 7.60476 17.3949C7.56395 17.5118 7.50899 17.634 7.5217 17.7548L7.41562 17.8305C7.03268 17.7598 6.68536 18.1538 6.32979 18.2542C4.7697 16.7994 3.1226 15.3839 1.66188 13.8309C1.48036 13.6379 1.23141 13.2601 1.16017 13.0074C1.28338 12.8223 0.996524 12.5937 1.19845 12.3305Z" fill="var(--fill-0, #FDC306)"/>
<path id="Vector_6" d="M7.52171 17.7548C7.85754 17.8425 7.47899 19.3381 7.45178 19.6181C7.43165 19.8249 7.36485 20.0951 7.32958 20.3065C7.08079 21.7965 6.78639 23.2867 6.62115 24.7876C6.58351 25.1294 6.56092 25.42 6.59133 25.7641C6.60542 25.9238 6.74344 26.4204 6.73588 26.5212C6.55066 26.4647 6.49544 26.4436 6.32279 26.3533C6.16236 26.1157 6.08613 25.9767 6.00601 25.7043L5.98257 25.702C5.88864 25.6925 5.87185 25.6883 5.78968 25.6387C5.71626 25.6515 5.68471 25.6554 5.63968 25.7205C5.46372 25.9746 5.61694 26.7724 5.54604 26.9403C5.11192 25.7192 5.8321 22.0454 6.01216 20.6562C6.08678 20.0804 6.23317 18.8142 6.32979 18.2542C6.68537 18.1538 7.03268 17.7598 7.41562 17.8305L7.52171 17.7548Z" fill="var(--fill-0, #FEFEFE)"/>
<path id="Vector_7" d="M6.32979 18.2542C6.68537 18.1538 7.03268 17.7598 7.41562 17.8305C7.20952 18.0312 6.90542 18.3683 6.82277 18.6404C6.64271 19.2331 6.54876 19.9811 6.44909 20.595C6.3242 21.3427 6.20678 22.0916 6.09685 22.8415C5.95532 23.8065 5.80239 24.7342 6.00601 25.7043L5.98257 25.702C5.88864 25.6925 5.87185 25.6883 5.78968 25.6387C5.71626 25.6515 5.68471 25.6555 5.63968 25.7205C5.46372 25.9746 5.61694 26.7724 5.54604 26.9403C5.11192 25.7192 5.8321 22.0455 6.01216 20.6562C6.08678 20.0805 6.23317 18.8142 6.32979 18.2542Z" fill="var(--fill-0, #FED63A)"/>
<path id="Vector_8" d="M19.3652 9.28224C19.1407 9.32653 18.894 9.37639 18.7692 9.13488C18.0639 7.76957 17.5679 6.24872 17.0056 4.82264C16.6254 3.85866 16.3467 2.89332 15.8783 1.96816C15.8316 1.87596 15.5185 1.57936 15.4237 1.47191L15.4325 1.44473C15.6803 1.40228 16.0409 1.69705 16.3133 1.66337C16.9532 2.16053 17.6125 3.63608 17.9788 4.38872L19.3371 7.15304C19.5128 7.50792 19.8423 8.21358 20.0665 8.50826C19.9987 8.57284 19.9944 8.58363 19.9666 8.6721C19.8548 8.79139 19.4703 9.21747 19.3652 9.28224Z" fill="var(--fill-0, #FDC306)"/>
<path id="Vector_9" d="M20.0665 8.50825C20.8138 8.70262 21.8204 8.80069 22.5886 8.99688C22.8737 9.06969 23.1701 9.096 23.4481 9.21052C24.075 9.34307 24.7111 9.44623 25.3357 9.59231C25.4949 9.62952 25.9391 9.71728 26.0718 9.77089C26.3217 9.96239 26.5885 10.0698 26.8407 10.2712C26.9977 10.4441 27.1032 10.5648 27.1696 10.795L27.1408 10.8744C27.0763 10.8727 26.8247 10.734 26.7184 10.7045C26.1199 10.5383 25.4935 10.46 24.8823 10.349C23.6054 10.1269 22.3265 9.91617 21.0457 9.71688C20.556 9.63677 19.9702 9.55356 19.4855 9.432C19.4157 9.41447 19.3937 9.34168 19.3653 9.28222C19.4703 9.21745 19.8549 8.79137 19.9666 8.67208C19.9944 8.58361 19.9987 8.57282 20.0665 8.50825Z" fill="var(--fill-0, #FEE67F)"/>
<path id="Vector_10" d="M20.0665 8.50825C20.8138 8.70262 21.8204 8.80069 22.5886 8.99688C22.8737 9.06969 23.1701 9.096 23.4481 9.21052C22.676 9.17546 20.6865 8.86671 19.9666 8.67208C19.9944 8.58361 19.9987 8.57282 20.0665 8.50825Z" fill="var(--fill-0, #FED63A)"/>
<path id="Vector_11" d="M13.9806 1.37457C14.4279 1.22184 14.5907 1.17515 15.0461 1.38711C15.1233 1.42315 15.1997 1.46097 15.2751 1.50054C15.085 2.21661 15.4925 2.03101 15.8748 2.54466C15.075 2.04411 14.4571 1.85903 13.7636 2.6813C13.2952 3.23664 13.063 3.87837 12.7494 4.51655C12.2658 5.48982 11.8537 6.49454 11.3768 7.47124C11.1279 7.98082 10.8509 8.76789 10.5072 9.20445C10.3699 8.96701 10.1363 8.71698 9.95195 8.50508C10.6247 7.15292 11.2149 5.75354 11.8903 4.403C12.4623 3.25914 12.7769 2.03539 13.9806 1.37457Z" fill="var(--fill-0, #FEFEFE)"/>
<path id="Vector_12" d="M6.48792 9.63111C5.67821 9.80321 1.89758 10.5171 1.62815 11.1828L2.31964 12.4964C2.27095 11.6945 2.57728 11.503 3.33112 11.2808C4.89692 10.8194 6.52155 10.5347 8.10771 10.1423C8.78025 9.97588 9.61914 9.91434 10.1961 9.54062C9.9763 9.32284 9.82589 9.09639 9.62383 8.88861C9.13492 9.11568 8.50545 9.18551 7.97503 9.29983C7.4785 9.40682 6.98491 9.52548 6.48792 9.63111Z" fill="var(--fill-0, #FEFEFE)"/>
</g>
<defs>
<clipPath id="clip0_0_129">
<rect width="30" height="30" fill="white"/>
</clipPath>
</defs>
</svg>
